<svg height="511pt" viewBox="0 -37 511.99942 511" width="511pt" xmlns="http://www.w3.org/2000/svg"><path d="m497.234375 33.035156c-16.871094 65.464844-73.769531 44.464844-105.554687 5.351563-31.109376-38.277344-65.234376-40.800781-88.386719-36.175781-18.90625 3.777343-33.414063 12.765624-39.5 17.035156-138.742188-34.828125-272.695313 75.390625-263.328125 219.753906 10.710937 165.046875 204.269531 259.671875 341.078125 154.128906 11.800781-6.453125 91.71875-73.988281 82.023437-186.527344-.355468-4.128906-3.996094-7.191406-8.113281-6.828124-4.128906.355468-7.1875 3.988281-6.832031 8.113281 1.269531 14.707031.945312 29.246093-1.101563 44.144531-4.726562-28.558594-15.59375-54.128906-17.589843-56.765625 3.003906-16.875 3.890624-32.914063 3.183593-48.742187 3.847657 8.867187 7.078125 18.097656 9.621094 27.652343 1.066406 4 5.179687 6.382813 9.175781 5.316407 4.003906-1.066407 6.386719-5.175782 5.316406-9.179688-17.757812-66.679688-67.394531-121.503906-134.089843-145.210938 34.019531-17.417968 68.445312-12.265624 96.898437 22.746094 43.558594 53.601563 112.660156 62.898438 131.726563-11.070312 1.03125-4.011719-1.382813-8.101563-5.394531-9.136719-4.015626-1.035156-8.097657 1.382813-9.132813 5.394531zm-374.972656 16.566406c-11.867188 10.273438-22.917969 22.039063-32.527344 34.628907-11.007813 5.101562-21.523437 11.027343-31.488281 17.761719 17.347656-21.65625 39.148437-39.59375 64.015625-52.390626zm-89.167969 93.007813c11.816406-12.203125 24.886719-22.832031 39.074219-31.785156-5.386719 9.519531-10.074219 19.375-14.042969 29.5-11.492188 6.085937-22.394531 13.167969-32.605469 21.179687 2.203125-6.453125 4.738281-12.757812 7.574219-18.894531zm-14.46875 44.824219c9.898438-9.613282 20.695312-18.164063 32.253906-25.546875-2.195312 7.789062-3.984375 15.699219-5.359375 23.695312-9.960937 4.042969-19.628906 8.828125-28.90625 14.308594.59375-4.632813 1.265625-8.605469 2.011719-12.457031zm-3.496094 31.089844c8.945313-5.945313 18.339844-11.183594 28.089844-15.632813-.683594 7.175781-1.0625 14.328125-1.0625 22.164063 0 7.386718.367188 15.277343 1.121094 23.046874-9.6875-3.867187-19.074219-8.523437-28.046875-13.914062-.296875-6.460938-.25-11.191406-.101563-15.664062zm1.777344 33.820312c9.226562 4.914062 18.796875 9.136719 28.628906 12.609375 1.914063 11.167969 4.644532 22.121094 8.160156 32.808594-10.695312-4.816407-20.980468-10.574219-30.726562-17.222657-2.628906-8.949218-4.644531-17.984374-6.0625-28.195312zm27.078125 75.496094c-4.824219-7.859375-9.105469-16.085938-12.804687-24.621094 9.582031 5.335938 19.542968 9.925781 29.804687 13.730469 4.523437 10.464843 9.835937 20.617187 15.929687 30.398437-11.53125-5.414062-22.542968-11.933594-32.929687-19.507812zm24.535156 32.117187c7.902344 3.8125 16.039063 7.136719 24.371094 9.957031 8.863281 11.09375 18.699219 21.332032 29.382813 30.597657-20.183594-10.382813-38.347657-24.160157-53.753907-40.554688zm257.347657 26.125c-28.253907-.792969-54.742188-8.96875-77.609376-22.648437 26.617188-9.421875 50.632813-23.828125 71.113282-42.007813 6.816406 19.710938 10.511718 40.292969 11.011718 61.363281-1.488281 1.121094-2.992187 2.21875-4.515624 3.292969zm36.183593-33.023437c-5.375 6.28125-11.128906 12.226562-17.238281 17.792968-1.59375-20.875-6.144531-41.238281-13.59375-60.761718 9.117188-9.40625 17.378906-19.625 24.6875-30.515625 6.445312 23.625 8.601562 48.351562 6.144531 73.484375zm33.335938-55.074219c-4.71875 11.8125-10.542969 23.0625-17.351563 33.625-.160156-23.710937-4.097656-46.964844-11.71875-69.195313 7.289063-13.335937 13.234375-27.480468 17.671875-42.226562 8.652344 24.910156 12.492188 51.121094 11.398438 77.796875zm-36.179688-204.304687c5.074219 5.679687 9.839844 11.65625 14.261719 17.9375 23.40625 105.679687-38.78125 211.335937-140.90625 241.132812-11.757812-9.054688-22.246094-19.683594-31.140625-31.566406 99.421875-28.003906 165.519531-123.488282 157.785156-227.503906zm-17.074219-16.898438c17.046876 105.179688-47.984374 205.355469-149.585937 231.257812-6.75-11.136718-12.1875-23.117187-16.128906-35.953124 40.375-13.296876 77.972656-39.339844 105.316406-75.484376 28.972656-38.304687 44.34375-84.066406 44.488281-132.382812 5.238282 3.714844 10.632813 7.933594 15.910156 12.5625zm-60.863281 93.472656c-8.414062 13.847656-18.421875 26.660156-29.804687 38.140625-22.394532-15.5-47.792969-26.773437-74.230469-32.980469 4.890625-14.757812 11.578125-28.492187 20.78125-41.761718 30.066406 5.703125 58.636719 18.253906 83.253906 36.601562zm-73.050781-49.804687c10.753906-12.539063 23.640625-23.714844 38.453125-32.808594 20.605469 6.328125 40.011719 15.738281 57.792969 28.042969-3.796875 14.417968-9.125 28.289062-15.828125 41.390625-24.035157-17.574219-51.480469-30.074219-80.417969-36.625zm32.019531 98.449219c-19.511719 16.921874-42.335937 30.210937-67.570312 38.640624-4.65625-22.429687-4.433594-45.492187.570312-67.667968 24.023438 5.527344 46.496094 15.265625 67 29.027344zm70.984375-153.792969c-.089844 11.828125-1.210937 23.476562-3.269531 34.855469-13.582031-8.871094-28.003906-16.210938-43.109375-21.941407 14.816406-6.667969 30.492188-11.015625 46.378906-12.914062zm-6.785156-14.296875c-41.183594 5.941406-78.972656 25.816406-108.226562 60.222656-91.214844 108.859375-24.761719 268.667969 108.277343 288.226562-12.390625 6.589844-25.558593 11.898438-39.332031 15.746094-81.019531-17.546875-141.855469-84.347656-151.640625-166.789062-.488281-4.113282-4.226563-7.054688-8.332031-6.566406-4.113282.488281-7.050782 4.21875-6.5625 8.332031 9.464844 79.742187 63.390625 144.648437 134.304687 171.167969-19.542969 2.050781-38.65625 1.105468-56.449219-2.160157-156.523437-79.132812-161.070312-306.417969.023438-387.871093 18.53125-3.402344 37.699219-4.136719 56.464844-2.152344-76.851563 28.757812-131.019532 100.796875-135.507813 184.730468-.222656 4.132813 2.953125 7.667969 7.089844 7.890626.136719.003906.269531.007812.40625.007812 3.957031 0 7.269531-3.097656 7.480469-7.097656 4.675781-87.386719 67.359375-160.886719 152.699218-179.382813 13.714844 3.828125 26.882813 9.113281 39.304688 15.695313zm0 0"/></svg>