<?xml version="1.0" encoding="iso-8859-1"?>
<!-- Generator: Adobe Illustrator 17.1.0, SVG Export Plug-In . SVG Version: 6.00 Build 0)  -->
<!DOCTYPE svg PUBLIC "-//W3C//DTD SVG 1.1//EN" "http://www.w3.org/Graphics/SVG/1.1/DTD/svg11.dtd">
<svg version="1.1" id="Capa_1" xmlns="http://www.w3.org/2000/svg" xmlns:xlink="http://www.w3.org/1999/xlink" x="0px" y="0px"
	 viewBox="0 0 465 465" style="enable-background:new 0 0 465 465;" xml:space="preserve">
<path d="M423.848,395.594H290.772V69.406h52.061v129.027c-15.644,3.442-27.388,17.405-27.388,34.067
	c0,19.237,15.65,34.888,34.888,34.888c19.236,0,34.887-15.65,34.887-34.888c0-16.662-11.744-30.625-27.387-34.067V69.406h45.729
	c13.085,0,23.729-10.645,23.729-23.729V23.729C427.291,10.645,416.646,0,403.561,0H61.438C48.354,0,37.709,10.645,37.709,23.729
	v21.947c0,13.085,10.645,23.729,23.729,23.729h112.789v326.188H41.151c-13.084,0-23.729,10.645-23.729,23.729v21.947
	c0,13.085,10.645,23.729,23.729,23.729h382.697c13.085,0,23.729-10.645,23.729-23.729v-21.947
	C447.578,406.238,436.933,395.594,423.848,395.594z M370.219,232.5c0,10.966-8.921,19.888-19.887,19.888
	s-19.888-8.922-19.888-19.888s8.922-19.888,19.888-19.888S370.219,221.534,370.219,232.5z M52.709,45.677V23.729
	c0-4.813,3.916-8.729,8.729-8.729h342.123c4.813,0,8.729,3.916,8.729,8.729v21.947c0,4.813-3.916,8.729-8.729,8.729H61.438
	C56.625,54.406,52.709,50.49,52.709,45.677z M189.227,342.356h12.787c4.142,0,7.5-3.357,7.5-7.5s-3.358-7.5-7.5-7.5h-12.787v-53.237
	h63.616c4.143,0,7.5-3.357,7.5-7.5s-3.357-7.5-7.5-7.5h-63.616v-53.238h43.759c4.142,0,7.5-3.357,7.5-7.5s-3.358-7.5-7.5-7.5
	h-43.759V69.406h86.545v53.237h-63.615c-4.142,0-7.5,3.357-7.5,7.5s3.358,7.5,7.5,7.5h63.615v53.237h-12.786
	c-4.143,0-7.5,3.357-7.5,7.5s3.357,7.5,7.5,7.5h12.786v121.476h-43.758c-4.142,0-7.5,3.357-7.5,7.5s3.358,7.5,7.5,7.5h43.758v53.237
	h-86.545V342.356z M432.578,441.271c0,4.813-3.916,8.729-8.729,8.729H41.151c-4.813,0-8.729-3.916-8.729-8.729v-21.947
	c0-4.813,3.916-8.729,8.729-8.729h382.697c4.813,0,8.729,3.916,8.729,8.729V441.271z"/>
<g>
</g>
<g>
</g>
<g>
</g>
<g>
</g>
<g>
</g>
<g>
</g>
<g>
</g>
<g>
</g>
<g>
</g>
<g>
</g>
<g>
</g>
<g>
</g>
<g>
</g>
<g>
</g>
<g>
</g>
</svg>
